<?xml version="1.0" standalone="no"?><!DOCTYPE svg PUBLIC "-//W3C//DTD SVG 1.1//EN" "http://www.w3.org/Graphics/SVG/1.1/DTD/svg11.dtd"><svg t="1518856839174" class="icon" style="" viewBox="0 0 1024 1024" version="1.1" xmlns="http://www.w3.org/2000/svg" p-id="2112" xmlns:xlink="http://www.w3.org/1999/xlink" width="200" height="200"><defs><style type="text/css"></style></defs><path d="M836 306c33.2 0 60-26.8 60-60V162c0-33.2-26.8-60-60-60H188c-33.2 0-60 26.8-60 60v84c0 33.2 26.8 60 60 60h68v542h128v14c0 33.2 26.8 60 60 60h392c33.2 0 60-26.8 60-60v-84c0-33.2-26.8-60-60-60H444c-33.2 0-60 26.8-60 60v14h-72V540h72v14c0 33.2 26.8 60 60 60h392c33.2 0 60-26.8 60-60v-84c0-33.2-26.8-60-60-60H444c-33.2 0-60 26.8-60 60v14h-72v-178h524zM440 778c0-2.2 1.8-4 4-4h392c2.2 0 4 1.8 4 4v84c0 2.2-1.8 4-4 4H444c-2.2 0-4-1.8-4-4v-84z m0-308c0-2.2 1.8-4 4-4h392c2.2 0 4 1.8 4 4v84c0 2.2-1.8 4-4 4H444c-2.2 0-4-1.8-4-4v-84zM188 250c-2.2 0-4-1.8-4-4V162c0-2.2 1.8-4 4-4h648c2.2 0 4 1.8 4 4v84c0 2.2-1.8 4-4 4H188z" p-id="2113"></path></svg>