<?xml version="1.0" standalone="no"?><!DOCTYPE svg PUBLIC "-//W3C//DTD SVG 1.1//EN" "http://www.w3.org/Graphics/SVG/1.1/DTD/svg11.dtd"><svg t="1516611052814" class="icon" style="" viewBox="0 0 1024 1024" version="1.1" xmlns="http://www.w3.org/2000/svg" p-id="863" xmlns:xlink="http://www.w3.org/1999/xlink" width="200" height="200"><defs><style type="text/css"></style></defs><path d="M817.7238698 95.79782057h-611.44692851c-60.95173216 0-110.47830963 49.57362127-110.47830962 110.47830963v611.4939723c0 60.90306615 49.52738857 110.43207693 110.47830962 110.43207693h611.49397231c60.90306615 0 110.43207693-49.52738857 110.43207693-110.47830963v-611.44692851c0-60.90306615-49.52738857-110.47830963-110.47830962-110.47830962zM881.95731258 817.7238698c0 35.42398167-28.81108332 64.23425388-64.23425387 64.23425388h-611.44692851c-35.42398167 0-64.23425388-28.81108332-64.23425388-64.23425388v-611.44692851c0-35.42398167 28.81108332-64.23425388 64.23425388-64.23425387h611.4939723c35.37693786 0 64.18883228 28.81108332 64.18883229 64.23425387v611.44692851z" p-id="864"></path></svg>