<?xml version="1.0" standalone="no"?><!DOCTYPE svg PUBLIC "-//W3C//DTD SVG 1.1//EN" "http://www.w3.org/Graphics/SVG/1.1/DTD/svg11.dtd"><svg t="1516607553147" class="icon" style="" viewBox="0 0 1024 1024" version="1.1" xmlns="http://www.w3.org/2000/svg" p-id="839" xmlns:xlink="http://www.w3.org/1999/xlink" width="200" height="200"><defs><style type="text/css"></style></defs><path d="M640.95893334 210.41706666c-17.10506667-7.52853333-37.0784 0.23466667-44.608 17.34186667-7.5296 17.1072 0.23573333 37.0784 17.34186666 44.60693333 111.6256 49.13066667 183.75466667 159.6608 183.75466667 281.5904 0 82.13333333-31.98506667 159.35146667-90.06293333 217.42826667s-135.29493333 90.06293333-217.42826667 90.06293333-159.35253333-31.98506667-217.42933333-90.06293333c-58.07786667-58.0768-90.06186667-135.29493333-90.06186667-217.42826667 0-122.6272 72.70293333-233.40906667 185.21813333-282.2304 17.14666667-7.44 25.0144-27.3696 17.57546667-44.5152-7.44-17.14666667-27.3728-25.01546667-44.51626667-17.57546667-137.2672 59.55946667-225.9616 194.7136-225.9616 344.32 0 50.6336 9.92426667 99.77066667 29.49653334 146.0448 18.89813333 44.67946667 45.94453333 84.79893333 80.38933333 119.24373334 34.4448 34.44373333 74.5632 61.49013333 119.24373333 80.38826666 46.2752 19.57333333 95.41226667 29.49653333 146.04586667 29.49653334 50.63253333 0 99.77066667-9.92426667 146.0448-29.49653334 44.68053333-18.89813333 84.79893333-45.94453333 119.24373333-80.38826666 34.44373333-34.4448 61.49013333-74.56426667 80.38826667-119.24373334 19.57333333-46.2752 29.49653333-95.4112 29.49653333-146.0448 0.00106667-148.7552-87.99253333-283.60213333-224.17066666-343.53813333z" fill="" p-id="840"></path><path d="M490.66666667 520.01813333c18.69013333 0 33.84213333-15.152 33.84213333-33.84213334V145.30986666c0-18.69013333-15.15093333-33.84213333-33.84213333-33.84213333s-33.84213333 15.152-33.84213333 33.84213333V486.17599999c0 18.69013333 15.152 33.84213333 33.84213333 33.84213334z" fill="" p-id="841"></path></svg>