<?xml version="1.0" standalone="no"?><!DOCTYPE svg PUBLIC "-//W3C//DTD SVG 1.1//EN" "http://www.w3.org/Graphics/SVG/1.1/DTD/svg11.dtd"><svg t="1516251055510" class="icon" style="" viewBox="0 0 1024 1024" version="1.1" xmlns="http://www.w3.org/2000/svg" p-id="2517" xmlns:xlink="http://www.w3.org/1999/xlink" width="200" height="200"><defs><style type="text/css"></style></defs><path d="M725.333333 298.666667h213.333334v426.666666h-213.333334v85.333334a42.666667 42.666667 0 0 0 42.666667 42.666666h85.333333v85.333334h-106.666666c-23.466667 0-64-19.2-64-42.666667 0 23.466667-40.533333 42.666667-64 42.666667H512v-85.333334h85.333333a42.666667 42.666667 0 0 0 42.666667-42.666666V213.333333a42.666667 42.666667 0 0 0-42.666667-42.666666h-85.333333V85.333333h106.666667c23.466667 0 64 19.2 64 42.666667 0-23.466667 40.533333-42.666667 64-42.666667H853.333333v85.333334h-85.333333a42.666667 42.666667 0 0 0-42.666667 42.666666v85.333334M85.333333 298.666667h469.333334v85.333333H170.666667v256h384v85.333333H85.333333V298.666667m768 341.333333V384h-128v256h128z" fill="" p-id="2518"></path></svg>