<?xml version="1.0" standalone="no"?><!DOCTYPE svg PUBLIC "-//W3C//DTD SVG 1.1//EN" "http://www.w3.org/Graphics/SVG/1.1/DTD/svg11.dtd"><svg t="1516689628178" class="icon" style="" viewBox="0 0 1024 1024" version="1.1" xmlns="http://www.w3.org/2000/svg" p-id="1472" xmlns:xlink="http://www.w3.org/1999/xlink" width="200" height="200"><defs><style type="text/css"></style></defs><path d="M512 90.125a421.875 421.875 0 1 0 421.875 421.875 421.875 421.875 0 0 0-421.875-421.875z m19.51171875 632.8125C421.82421875 722.9375 380.1640625 623.26953125 380.1640625 512s49.04296875-210.9375 158.203125-210.9375a131.30859375 131.30859375 0 0 1 105.46875 49.04296875l-24.78515625 37.96875a98.61328125 98.61328125 0 0 0-83.3203125-41.66015625c-75.9375 0-110.21484375 80.15625-110.21484375 158.203125v15.8203125A139.21875 139.21875 0 0 1 539.94921875 459.265625 120.76171875 120.76171875 0 0 1 670.203125 589.51953125 131.30859375 131.30859375 0 0 1 531.51171875 722.9375z" p-id="1473"></path><path d="M528.875 503.03515625A118.65234375 118.65234375 0 0 0 431.31640625 564.734375c4.21875 52.734375 30.05859375 113.90625 98.0859375 113.90625A86.484375 86.484375 0 0 0 617.46875 591.1015625a82.265625 82.265625 0 0 0-88.59375-88.06640625z" p-id="1474"></path></svg>