<?xml version="1.0" standalone="no"?><!DOCTYPE svg PUBLIC "-//W3C//DTD SVG 1.1//EN" "http://www.w3.org/Graphics/SVG/1.1/DTD/svg11.dtd"><svg t="1516686589052" class="icon" style="" viewBox="0 0 1024 1024" version="1.1" xmlns="http://www.w3.org/2000/svg" p-id="868" xmlns:xlink="http://www.w3.org/1999/xlink" width="200" height="200"><defs><style type="text/css"></style></defs><path d="M116.4921875 215.07548998C116.4921875 160.62943571 160.71558457 116.4921875 215.07548998 116.4921875L808.92450925 116.4921875C863.37056429 116.4921875 907.5078125 160.71558457 907.5078125 215.07548998L907.5078125 808.92450925C907.5078125 863.37056429 863.28441313 907.5078125 808.92450925 907.5078125L215.07548998 907.5078125C160.62943571 907.5078125 116.4921875 863.28441313 116.4921875 808.92450925L116.4921875 215.07548998ZM477.14321903 643.10319156C496.46417503 665.89466065 527.52190185 666.21048368 547.11059116 643.10319156L748.99775876 404.95217682C768.31871554 382.16070695 759.20655698 363.68457031 729.86077722 363.68457031L294.39303297 363.68457031C264.50301206 363.68457031 255.66736057 381.84488316 275.25604911 404.95217682L477.14321903 643.10319156Z" p-id="869"></path></svg>