<?xml version="1.0" standalone="no"?><!DOCTYPE svg PUBLIC "-//W3C//DTD SVG 1.1//EN" "http://www.w3.org/Graphics/SVG/1.1/DTD/svg11.dtd"><svg t="1518856912475" class="icon" style="" viewBox="0 0 1024 1024" version="1.1" xmlns="http://www.w3.org/2000/svg" p-id="4667" xmlns:xlink="http://www.w3.org/1999/xlink" width="200" height="200"><defs><style type="text/css"></style></defs><path d="M384.122065 780.284121H119.328853c-14.544162 0-26.375758 11.831596-26.375757 26.374465s11.831596 26.374465 26.375757 26.374465h264.79192c14.544162 0 26.374465-11.831596 26.374464-26.374465s-11.830303-26.374465-26.373172-26.374465zM119.328853 237.252525h785.325253c14.542869 0 26.374465-11.831596 26.374465-26.374464s-11.831596-26.375758-26.374465-26.375758H119.328853c-14.544162 0-26.375758 11.831596-26.375757 26.375758s11.832889 26.374465 26.375757 26.374464zM119.328853 634.440404h198.59394c14.544162 0 26.375758-11.831596 26.375757-26.374465 0-14.544162-11.831596-26.377051-26.375757-26.37705H119.328853c-14.544162 0-26.375758 11.832889-26.375757 26.37705 0 14.542869 11.832889 26.374465 26.375757 26.374465zM384.122065 383.094949H119.328853c-14.544162 0-26.375758 11.831596-26.375757 26.374465s11.831596 26.375758 26.375757 26.375758h264.79192c14.544162 0 26.374465-11.831596 26.374464-26.375758s-11.830303-26.374465-26.373172-26.374465zM927.699278 469.114828c-4.699798-8.238545-13.521455-13.35596-23.023192-13.355959h-397.187879c-9.45002 0-18.276848 5.127758-22.993455 13.302949a26.84897 26.84897 0 0 0-3.383596 13.071515c0 4.836848 1.287758 9.513374 3.741738 13.553778L683.437783 826.726141c4.759273 7.879111 13.436121 12.772848 22.645656 12.772849 9.155232 0 17.838545-4.905374 22.63402-12.754748l198.587475-331.044202c4.838141-8.104081 4.973899-18.318222 0.394344-26.585212zM706.082146 761.845657L554.065985 508.509091h304.03103L706.082146 761.845657z" p-id="4668"></path></svg>